<svg width="222" height="50" viewBox="0 0 222 50" fill="none" xmlns="http://www.w3.org/2000/svg">
<path d="M56.5088 15.7159C60.9488 15.7159 64.5888 17.3159 67.4288 20.5159C70.3088 23.7159 71.7488 28.8759 71.7488 35.9959V49.4959H60.0488V36.1759C60.0488 33.6159 59.8688 31.4559 59.5088 29.6959C59.1888 27.9359 58.4088 26.4559 57.1688 25.2559C55.9288 24.0559 54.0488 23.4559 51.5288 23.4559C48.8888 23.4559 46.9088 24.0759 45.5888 25.3159C44.3088 26.5559 43.4888 28.0759 43.1288 29.8759C42.7688 31.6359 42.5888 33.7759 42.5888 36.2959V49.4959H30.8888V20.8159L34.2183 20.5159L40.4099 18.1977L42.569 13.0757L42.5888 20.8159C45.6288 17.4159 50.2688 15.7159 56.5088 15.7159Z" fill="#FF005C"/>
<path d="M96.6615 15.3559C102.181 15.3559 107.121 16.3159 111.481 18.2359C115.841 20.1559 118.021 23.5359 118.021 28.3759V49.4959H107.101L106.141 44.5159V44.2159C105.221 46.0559 103.101 47.4959 99.7815 48.5359C96.5015 49.5759 92.6215 49.4959 88.7415 49.4959C85.6215 49.4959 82.7615 49.4559 79.5615 48.1759C76.3615 46.8559 74.7615 44.0359 74.7615 39.7159C74.7615 35.5959 76.1215 32.8759 78.8415 31.5559C81.6015 30.2359 84.5615 29.5759 87.7215 29.5759C93.8415 29.5759 98.0815 29.5359 100.441 29.4559C102.801 29.3359 104.341 29.1159 105.061 28.7959C105.821 28.4759 106.221 27.8959 106.261 27.0559V26.3959C106.221 24.9959 105.221 23.9159 103.261 23.1559C101.341 22.3559 99.1215 21.9559 96.6015 21.9559C93.8815 21.9559 91.5615 22.4159 89.6415 23.3359C87.7615 24.2159 86.8215 25.5959 86.8215 27.4759H75.1215C75.1215 24.3959 76.2815 21.9559 78.6015 20.1559C80.9615 18.3559 83.7615 17.1159 87.0015 16.4359C90.2815 15.7159 93.5015 15.3559 96.6615 15.3559ZM105.061 34.4959C105.061 34.4959 101.341 34.4959 97.3815 34.4959C94.7015 34.4959 92.6015 34.5959 91.0815 34.7959C89.6015 34.9959 88.5015 35.3559 87.7815 35.8759C87.1015 36.3559 86.7415 37.0759 86.7015 38.0359C86.8215 39.3559 87.5015 40.3559 88.7415 41.0359C90.0215 41.7159 92.1615 42.0559 95.1615 42.0559C99.1215 42.0559 101.941 41.1959 103.621 39.4759C105.341 37.7559 105.061 34.4959 105.061 34.4959Z" fill="#FF005C"/>
<path d="M133.644 0.86889H121.944V9.02889H133.644V0.86889ZM133.644 49.4959H121.944V11.1092H133.644V49.4959Z" fill="#FF005C"/>
<path d="M160.749 31.4359L178.929 49.4959H165.009L148.929 33.8959V49.4959H137.229V0.86889H148.929V29.0959L162.669 16.7959H176.829L160.749 31.4359Z" fill="#FF005C"/>
<path d="M209.756 16.7959H221.456V49.4959H209.756V45.2959C206.636 48.8159 201.916 49.4959 195.596 49.4959C190.836 49.4959 187.136 49.0159 184.496 45.8959C181.896 42.7359 180.596 37.5359 180.596 30.2959V16.7959H192.296V30.1159C192.296 32.6359 192.456 34.7959 192.776 36.5959C193.136 38.3559 193.936 39.8359 195.176 41.0359C196.416 42.2359 198.276 42.8359 200.756 42.8359C204.356 42.8359 206.756 41.6559 207.956 39.2959C209.156 36.8959 209.756 33.7959 209.756 29.9959V16.7959Z" fill="#FF005C"/>
<path d="M41.6303 16.8281C40.7104 18.794 39.163 20.3984 37.2316 21.3887C35.3001 22.379 33.0942 22.6991 30.9609 22.2986L23.5602 38.1695C22.1857 41.1171 19.6966 43.398 16.6403 44.5104C13.5841 45.6228 10.2112 45.4755 7.26356 44.101C4.31592 42.7265 2.03503 40.2373 0.92266 37.1811C-0.189711 34.1249 -0.0424449 30.752 1.33206 27.8043L6.51464 16.6903L12.4461 32.9869L5.77769 29.8774C4.95299 31.6459 4.86463 33.6697 5.53205 35.5034C6.19947 37.3372 7.56801 38.8307 9.33659 39.6554C11.1052 40.4801 13.1289 40.5684 14.9627 39.901C16.7964 39.2336 18.2899 37.865 19.1146 36.0965L26.5153 20.2256C23.0577 17.3684 21.9821 12.537 23.8789 8.46925C26.1696 3.55683 31.9949 1.5104 36.8851 3.79074C41.8198 6.0918 43.921 11.9156 41.6303 16.8281ZM30.666 17.1276C31.8451 17.6774 33.1943 17.7363 34.4168 17.2914C35.6392 16.8464 36.6349 15.9341 37.1847 14.755C37.7345 13.576 37.7934 12.2268 37.3485 11.0043C36.9035 9.78183 35.9912 8.78617 34.8121 8.23637C33.633 7.68657 32.2839 7.62766 31.0614 8.07261C29.8389 8.51756 28.8432 9.42991 28.2934 10.609C27.7436 11.788 27.6847 13.1372 28.1297 14.3597C28.5746 15.5822 29.487 16.5778 30.666 17.1276Z" fill="#FF005C"/>
<path d="M30.8888 3.03027L42.5691 0.859009V15.4053L37.2959 6.75382H30.8888V3.03027Z" fill="#FF005C"/>
</svg>
