<svg width="10" height="16" viewBox="0 0 10 16" fill="none" xmlns="http://www.w3.org/2000/svg">
<path d="M1.57527 15.8064C1.37704 15.8076 1.18053 15.77 0.997019 15.6958C0.813503 15.6216 0.646587 15.5122 0.505845 15.374C0.364668 15.2354 0.252613 15.0705 0.176143 14.8888C0.0996734 14.7071 0.0603027 14.5122 0.0603027 14.3153C0.0603027 14.1185 0.0996734 13.9236 0.176143 13.7418C0.252613 13.5601 0.364668 13.3952 0.505845 13.2566L5.49149 8.35073L0.701656 3.41505C0.421118 3.13566 0.263654 2.75773 0.263654 2.36379C0.263654 1.96985 0.421118 1.59192 0.701656 1.31254C0.84168 1.17277 1.00827 1.06184 1.19182 0.986139C1.37537 0.910435 1.57224 0.87146 1.77108 0.87146C1.96992 0.87146 2.1668 0.910435 2.35035 0.986139C2.5339 1.06184 2.70049 1.17277 2.84051 1.31254L8.65458 7.27711C8.93056 7.55585 9.08515 7.9306 9.08515 8.32091C9.08515 8.71122 8.93056 9.08597 8.65458 9.36471L2.62964 15.3293C2.49444 15.4738 2.33166 15.5904 2.15068 15.6723C1.96971 15.7542 1.77414 15.7998 1.57527 15.8064V15.8064Z" fill="#F5F5F5"/>
</svg>
