<svg width="22" height="22" viewBox="0 0 22 22" fill="none" xmlns="http://www.w3.org/2000/svg">
<path d="M11.2679 14.3724L13.2679 16.3724L17.2679 12.3724" stroke="#272828" stroke-linecap="round" stroke-linejoin="round"/>
<path d="M19.2679 7.37244H9.26794C8.16337 7.37244 7.26794 8.26787 7.26794 9.37244V19.3724C7.26794 20.477 8.16337 21.3724 9.26794 21.3724H19.2679C20.3725 21.3724 21.2679 20.477 21.2679 19.3724V9.37244C21.2679 8.26787 20.3725 7.37244 19.2679 7.37244Z" stroke="#272828" stroke-linecap="round" stroke-linejoin="round"/>
<path d="M3.26794 15.3724C2.16794 15.3724 1.26794 14.4724 1.26794 13.3724V3.37244C1.26794 2.27244 2.16794 1.37244 3.26794 1.37244H13.2679C14.3679 1.37244 15.2679 2.27244 15.2679 3.37244" stroke="#272828" stroke-linecap="round" stroke-linejoin="round"/>
</svg>
