<svg width="24" height="24" viewBox="0 0 24 24" fill="none" xmlns="http://www.w3.org/2000/svg">
<path d="M5.14773 3.21909H3.52273C2.66078 3.21909 1.83413 3.5615 1.22463 4.17099C0.615141 4.78048 0.272732 5.60713 0.272732 6.46909L0.272705 20.6464C0.272705 21.5083 0.615115 22.335 1.22461 22.9445C1.8341 23.554 2.66075 23.8964 3.52271 23.8964H19.7727C20.6347 23.8964 21.4613 23.554 22.0708 22.9445C22.6803 22.335 23.0227 21.5083 23.0227 20.6464L23.0227 6.46909C23.0227 5.60713 22.6803 4.78048 22.0708 4.17099C21.4613 3.5615 20.6347 3.21909 19.7727 3.21909H18.1477V4.84409H19.7727C20.2037 4.84409 20.617 5.01529 20.9218 5.32004C21.2265 5.62478 21.3977 6.03811 21.3977 6.46909L21.3977 20.6464C21.3977 21.0774 21.2265 21.4907 20.9218 21.7954C20.617 22.1002 20.2037 22.2714 19.7727 22.2714H3.52271C3.09173 22.2714 2.6784 22.1002 2.37366 21.7954C2.06891 21.4907 1.89771 21.0774 1.89771 20.6464L1.89773 6.46909C1.89773 6.03811 2.06894 5.62478 2.37368 5.32004C2.67843 5.01529 3.09176 4.84409 3.52273 4.84409H5.14773V3.21909Z" fill="#F5F5F5"/>
<path d="M14.0852 2.40659C14.3007 2.40659 14.5074 2.49219 14.6597 2.64456C14.8121 2.79693 14.8977 3.0036 14.8977 3.21909V4.84409C14.8977 5.05957 14.8121 5.26624 14.6597 5.41861C14.5074 5.57098 14.3007 5.65659 14.0852 5.65659H9.21021C8.99472 5.65659 8.78805 5.57098 8.63568 5.41861C8.48331 5.26624 8.39771 5.05957 8.39771 4.84409V3.21909C8.39771 3.0036 8.48331 2.79693 8.63568 2.64456C8.78805 2.49219 8.99472 2.40659 9.21021 2.40659H14.0852ZM9.21021 0.781586C8.56374 0.781586 7.94375 1.03839 7.48663 1.49551C7.02951 1.95263 6.77271 2.57262 6.77271 3.21909V4.84409C6.77271 5.49055 7.02951 6.11054 7.48663 6.56766C7.94375 7.02478 8.56374 7.28159 9.21021 7.28159H14.0852C14.7317 7.28159 15.3517 7.02478 15.8088 6.56766C16.2659 6.11054 16.5227 5.49055 16.5227 4.84409V3.21909C16.5227 2.57262 16.2659 1.95263 15.8088 1.49551C15.3517 1.03839 14.7317 0.781586 14.0852 0.781586L9.21021 0.781586Z" fill="#F5F5F5"/>
</svg>
