<svg width="24" height="24" viewBox="0 0 24 24" fill="none" xmlns="http://www.w3.org/2000/svg">
<path fill-rule="evenodd" clip-rule="evenodd" d="M16.6559 12.9094C16.7315 12.9888 16.7916 13.0832 16.8325 13.187C16.8735 13.2909 16.8946 13.4023 16.8946 13.5147C16.8946 13.6272 16.8735 13.7386 16.8325 13.8425C16.7916 13.9463 16.7315 14.0407 16.6559 14.1201L11.7809 19.2504C11.7054 19.33 11.6157 19.3932 11.517 19.4363C11.4183 19.4794 11.3125 19.5016 11.2056 19.5016C11.0987 19.5016 10.9929 19.4794 10.8942 19.4363C10.7955 19.3932 10.7058 19.33 10.6304 19.2504L8.19287 16.6853C8.11732 16.6058 8.0574 16.5114 8.01652 16.4075C7.97563 16.3036 7.95459 16.1923 7.95459 16.0799C7.95459 15.9675 7.97563 15.8561 8.01652 15.7523C8.0574 15.6484 8.11732 15.554 8.19287 15.4745C8.34543 15.314 8.55236 15.2238 8.76812 15.2238C8.87495 15.2238 8.98074 15.2459 9.07944 15.2889C9.17814 15.332 9.26782 15.395 9.34337 15.4745L11.2056 17.436L15.5054 12.9094C15.5808 12.8297 15.6705 12.7666 15.7692 12.7235C15.8679 12.6804 15.9737 12.6582 16.0806 12.6582C16.1875 12.6582 16.2933 12.6804 16.392 12.7235C16.4907 12.7666 16.5804 12.8297 16.6559 12.9094V12.9094Z" fill="#63C94F"/>
<path d="M5.51807 3.25418H3.89307C3.03111 3.25418 2.20446 3.61452 1.59497 4.25593C0.985476 4.89734 0.643066 5.76728 0.643066 6.67437V20.5798C0.643066 21.4869 0.985476 22.3568 1.59497 22.9983C2.20446 23.6397 3.03111 24 3.89307 24H20.1431C21.005 24 21.8317 23.6397 22.4412 22.9983C23.0507 22.3568 23.3931 21.4869 23.3931 20.5798V6.67437C23.3931 5.76728 23.0507 4.89734 22.4412 4.25593C21.8317 3.61452 21.005 3.25418 20.1431 3.25418H18.5181V4.96427H20.1431C20.574 4.96427 20.9874 5.14444 21.2921 5.46515C21.5969 5.78585 21.7681 6.22082 21.7681 6.67437V20.5798C21.7681 21.0334 21.5969 21.4683 21.2921 21.789C20.9874 22.1097 20.574 22.2899 20.1431 22.2899H3.89307C3.46209 22.2899 3.04876 22.1097 2.74402 21.789C2.43927 21.4683 2.26807 21.0334 2.26807 20.5798V6.67437C2.26807 6.22082 2.43927 5.78585 2.74402 5.46515C3.04876 5.14444 3.46209 4.96427 3.89307 4.96427H5.51807V3.25418Z" fill="#63C94F"/>
<path d="M14.4556 2.39912C14.6711 2.39912 14.8777 2.4892 15.0301 2.64956C15.1825 2.80991 15.2681 3.02739 15.2681 3.25417V4.96426C15.2681 5.19103 15.1825 5.40852 15.0301 5.56887C14.8777 5.72922 14.6711 5.81931 14.4556 5.81931H9.58057C9.36508 5.81931 9.15842 5.72922 9.00604 5.56887C8.85367 5.40852 8.76807 5.19103 8.76807 4.96426V3.25417C8.76807 3.02739 8.85367 2.80991 9.00604 2.64956C9.15842 2.4892 9.36508 2.39912 9.58057 2.39912H14.4556ZM9.58057 0.689026C8.9341 0.689026 8.31411 0.959281 7.85699 1.44034C7.39987 1.9214 7.14307 2.57385 7.14307 3.25417V4.96426C7.14307 5.64458 7.39987 6.29703 7.85699 6.77809C8.31411 7.25915 8.9341 7.5294 9.58057 7.5294H14.4556C15.102 7.5294 15.722 7.25915 16.1791 6.77809C16.6363 6.29703 16.8931 5.64458 16.8931 4.96426V3.25417C16.8931 2.57385 16.6363 1.9214 16.1791 1.44034C15.722 0.959281 15.102 0.689026 14.4556 0.689026L9.58057 0.689026Z" fill="#63C94F"/>
</svg>
