<svg width="21" height="20" viewBox="0 0 21 20" fill="none" xmlns="http://www.w3.org/2000/svg">
<path fill-rule="evenodd" clip-rule="evenodd" d="M10.0728 0.934109C4.54775 0.934109 0.0727539 5.23554 0.0727539 10.5462C0.0727539 14.7996 2.93525 18.3921 6.91025 19.6657C7.41025 19.7499 7.59775 19.4615 7.59775 19.2092C7.59775 18.9809 7.58525 18.2239 7.58525 17.4189C5.07275 17.8635 4.42275 16.8302 4.22275 16.2895C4.11025 16.0131 3.62275 15.1601 3.19775 14.9318C2.84775 14.7515 2.34775 14.307 3.18525 14.295C3.97275 14.283 4.53525 14.9918 4.72275 15.2802C5.62275 16.734 7.06025 16.3255 7.63525 16.0732C7.72275 15.4484 7.98525 15.0279 8.27275 14.7876C6.04775 14.5473 3.72275 13.7182 3.72275 10.0416C3.72275 8.99628 4.11025 8.13119 4.74775 7.45834C4.64775 7.21804 4.29775 6.2328 4.84775 4.91113C4.84775 4.91113 5.68525 4.65881 7.59775 5.89637C8.39775 5.6801 9.24775 5.57196 10.0978 5.57196C10.9478 5.57196 11.7978 5.6801 12.5978 5.89637C14.5103 4.64679 15.3478 4.91113 15.3478 4.91113C15.8978 6.2328 15.5478 7.21804 15.4478 7.45834C16.0853 8.13119 16.4728 8.98427 16.4728 10.0416C16.4728 13.7303 14.1353 14.5473 11.9103 14.7876C12.2728 15.088 12.5853 15.6647 12.5853 16.5658C12.5853 17.8515 12.5728 18.8848 12.5728 19.2092C12.5728 19.4615 12.7603 19.7619 13.2603 19.6657C15.2454 19.0215 16.9704 17.7951 18.1925 16.1592C19.4145 14.5233 20.0722 12.5602 20.0728 10.5462C20.0728 5.23554 15.5978 0.934109 10.0728 0.934109Z" fill="#F5F5F5"/>
</svg>
