<svg width="152" height="51" viewBox="0 0 152 51" fill="none" xmlns="http://www.w3.org/2000/svg">
<path d="M1.13311 46.3929V46.8441H1.58435H9.53177H9.98302V46.3929V27.9069H28.5765V41.2932L18.6572 37.4044L18.1582 38.1276L28.6935 49.7476L28.8278 49.8957H29.0278H36.9752H37.4265V49.4445V2.93038V2.47914H36.9752H29.0278H28.5765V2.93038V20.5471H9.98302V2.93038V2.47914H9.53177H1.58435H1.13311V2.93038V46.3929ZM46.0206 46.2978L46.0205 46.2978L46.0285 46.3017C47.8069 47.1692 50.0539 47.5892 52.7457 47.5892C55.3718 47.5892 57.5563 47.0388 59.2649 45.9005C60.613 45.0238 61.7267 43.9584 62.6018 42.7051L63.165 46.4598L63.2227 46.8441H63.6113H70.379H70.8303V46.3929V27.4556C70.8303 23.3385 69.5309 20.0983 66.8875 17.8016C64.2577 15.5167 60.6846 14.4003 56.2227 14.4003C53.6036 14.4003 51.2237 14.8649 49.0904 15.8029C46.9571 16.6996 45.1987 18.006 43.825 19.723L43.825 19.723L43.8207 19.7285C42.4811 21.457 41.7071 23.4854 41.4928 25.7997L41.4472 26.2926H41.9421H49.7033H50.0752L50.1462 25.9274C50.414 24.5503 51.0914 23.5454 52.1765 22.8719L52.1766 22.872L52.1858 22.8659C53.3038 22.1335 54.6228 21.76 56.1606 21.76C57.8512 21.76 59.2352 22.2295 60.3433 23.1466C61.4066 24.0266 61.9804 25.4285 61.9804 27.4556V27.7495H54.6083C50.0901 27.7495 46.6179 28.6469 44.2688 30.5175C41.9261 32.383 40.7458 34.8309 40.7458 37.8245C40.7458 39.5988 41.1796 41.2305 42.0499 42.71C42.9281 44.2029 44.2603 45.3961 46.0206 46.2978ZM59.4819 38.3993L59.4819 38.3993L59.4772 38.4049C58.3364 39.7738 56.7148 40.4778 54.5463 40.4778C53.1209 40.4778 52.0225 40.1612 51.2105 39.5706C50.4254 38.9996 50.0304 38.2087 50.0304 37.1416C50.0304 36.1673 50.4186 35.3614 51.2308 34.6968L51.2309 34.6969L51.24 34.6891C52.0262 34.0101 53.4009 33.6191 55.4776 33.6191H61.7104C61.3476 35.5101 60.6018 37.0988 59.4819 38.3993ZM74.8608 9.83825L74.8607 9.83833L74.8681 9.84508C75.9137 10.7998 77.2272 11.267 78.7735 11.267C80.3177 11.267 81.6139 10.8009 82.6207 9.84165C83.6667 8.8848 84.1919 7.6668 84.1919 6.22111C84.1919 4.77699 83.6674 3.57631 82.6167 2.65888C81.6105 1.70223 80.3157 1.23735 78.7735 1.23735C77.2276 1.23735 75.9144 1.70431 74.8688 2.65858C73.8564 3.57902 73.3552 4.7803 73.3552 6.22111C73.3552 7.66179 73.8559 8.879 74.8608 9.83825ZM74.3486 46.3929V46.8441H74.7998H82.7473H83.1985V46.3929V15.5966V15.1453H82.7473H74.7998H74.3486V15.5966V46.3929ZM86.569 46.3929V46.8441H87.0203H94.9677H95.4189V46.3929V32.21L107.097 46.6763L107.232 46.8441H107.448H117.382H118.376L117.722 46.0959L103.332 29.6328L115.669 15.8981L116.345 15.1453H115.333H105.895H105.691L105.556 15.2993L95.4189 26.8762V1.6886V1.23735H94.9677H87.0203H86.569V1.6886V46.3929ZM122.93 43.8314L122.933 43.8347C125.147 46.3527 128.262 47.5892 132.212 47.5892C134.682 47.5892 136.855 47.0351 138.715 45.9108C140.205 45.0302 141.418 43.9062 142.351 42.5409L142.816 46.4462L142.864 46.8441H143.264H150.28H150.732V46.3929V15.5966V15.1453H150.28H142.333H141.882V15.5966V31.4914C141.882 34.2296 141.178 36.3011 139.828 37.7672L139.824 37.772C138.506 39.2451 136.829 39.981 134.758 39.981C132.533 39.981 130.991 39.3101 130.025 38.0471C129.032 36.749 128.504 34.8334 128.504 32.2365V15.5966V15.1453H128.052H120.167H119.716V15.5966V32.9816C119.716 37.6769 120.763 41.318 122.93 43.8314Z" fill="#F6F6F6" stroke="#F6F6F6" stroke-width="0.90249"/>
<path d="M15.382 35.6311L18.8311 36.9846L17.8277 38.431L15.382 35.6311Z" fill="#F6F6F6"/>
</svg>
