<svg width="152" height="51" viewBox="0 0 152 51" fill="none" xmlns="http://www.w3.org/2000/svg">
<g clip-path="url(#clip0_12_197)">
<path d="M1.13306 46.3929V46.8441H1.5843H9.53172H9.98297V46.3929V27.9069H28.5764V41.2932L18.6571 37.4044L18.1581 38.1276L28.6934 49.7476L28.8277 49.8957H29.0277H36.9751H37.4264V49.4445V2.9304V2.47916H36.9751H29.0277H28.5764V2.9304V20.5471H9.98297V2.9304V2.47916H9.53172H1.5843H1.13306V2.9304V46.3929ZM46.0205 46.2978L46.0284 46.3017C47.8068 47.1692 50.0538 47.5892 52.7456 47.5892C55.3717 47.5892 57.5562 47.0388 59.2648 45.9005C60.6129 45.0238 61.7266 43.9584 62.6017 42.7051L63.1649 46.4598L63.2226 46.8441H63.6112H70.3789H70.8302V46.3929V27.4556C70.8302 23.3385 69.5308 20.0983 66.8874 17.8016C64.2576 15.5167 60.6845 14.4003 56.2226 14.4003C53.6035 14.4003 51.2236 14.8649 49.0903 15.8029C46.957 16.6996 45.1986 18.006 43.8249 19.723L43.8206 19.7285C42.481 21.457 41.707 23.4854 41.4927 25.7997L41.4471 26.2926H41.942H49.7032H50.0751L50.1461 25.9274C50.4139 24.5503 51.0913 23.5454 52.1764 22.8719L52.1857 22.8659C53.3037 22.1335 54.6227 21.76 56.1605 21.76C57.8511 21.76 59.2351 22.2295 60.3432 23.1466C61.4065 24.0266 61.9803 25.4285 61.9803 27.4556V27.7495H54.6082C50.09 27.7495 46.6178 28.6469 44.2687 30.5175C41.926 32.383 40.7457 34.8309 40.7457 37.8245C40.7457 39.5988 41.1795 41.2305 42.0498 42.71C42.928 44.2029 44.2602 45.3961 46.0205 46.2978ZM59.4818 38.3993L59.4771 38.4049C58.3363 39.7738 56.7147 40.4778 54.5462 40.4778C53.1208 40.4778 52.0224 40.1612 51.2104 39.5706C50.4253 38.9996 50.0303 38.2087 50.0303 37.1416C50.0303 36.1673 50.4185 35.3614 51.2307 34.6968L51.2399 34.6891C52.0261 34.0101 53.4008 33.6191 55.4775 33.6191H61.7103C61.3475 35.5101 60.6017 37.0988 59.4818 38.3993ZM74.8607 9.83827L74.868 9.8451C75.9136 10.7998 77.2271 11.267 78.7734 11.267C80.3176 11.267 81.6138 10.8009 82.6206 9.84167C83.6666 8.88482 84.1918 7.66682 84.1918 6.22113C84.1918 4.77701 83.6673 3.57633 82.6166 2.6589C81.6104 1.70225 80.3156 1.23737 78.7734 1.23737C77.2275 1.23737 75.9143 1.70433 74.8687 2.6586C73.8563 3.57904 73.3551 4.78032 73.3551 6.22113C73.3551 7.66181 73.8558 8.87902 74.8607 9.83827ZM74.3485 46.3929V46.8441H74.7997H82.7472H83.1984V46.3929V15.5966V15.1453H82.7472H74.7997H74.3485V15.5966V46.3929ZM86.5689 46.3929V46.8441H87.0202H94.9676H95.4188V46.3929V32.21L107.097 46.6763L107.232 46.8441H107.448H117.382H118.376L117.722 46.0959L103.332 29.6328L115.669 15.8981L116.345 15.1453H115.333H105.895H105.691L105.556 15.2993L95.4188 26.8762V1.68862V1.23737H94.9676H87.0202H86.5689V1.68862V46.3929ZM122.93 43.8314L122.933 43.8347C125.147 46.3527 128.262 47.5892 132.212 47.5892C134.682 47.5892 136.855 47.0351 138.715 45.9108C140.205 45.0302 141.418 43.9062 142.351 42.5409L142.816 46.4462L142.864 46.8441H143.264H150.28H150.732V46.3929V15.5966V15.1453H150.28H142.333H141.882V15.5966V31.4914C141.882 34.2296 141.178 36.3011 139.828 37.7672L139.824 37.772C138.506 39.2451 136.829 39.981 134.758 39.981C132.533 39.981 130.991 39.3101 130.025 38.0471C129.032 36.749 128.504 34.8334 128.504 32.2365V15.5966V15.1453H128.052H120.167H119.716V15.5966V32.9816C119.716 37.6769 120.763 41.318 122.93 43.8314Z" fill="#272828" stroke="#272828" stroke-width="0.90249"/>
<path d="M15.382 35.6311L18.8311 36.9846L17.8277 38.431L15.382 35.6311Z" fill="#272828"/>
</g>
<defs>
<clipPath id="clip0_12_197">
<rect width="152" height="51" fill="white"/>
</clipPath>
</defs>
</svg>
