<svg width="222" height="49" viewBox="0 0 222 49" fill="none" xmlns="http://www.w3.org/2000/svg">
<path d="M56.7979 15.0277C61.2379 15.0277 64.8779 16.6277 67.7179 19.8277C70.5979 23.0277 72.0379 28.1877 72.0379 35.3077V48.8077H60.3379V35.4877C60.3379 32.9277 60.1579 30.7677 59.7979 29.0077C59.4779 27.2477 58.6979 25.7677 57.4579 24.5677C56.2179 23.3677 54.3379 22.7677 51.8179 22.7677C49.1779 22.7677 47.1979 23.3877 45.8779 24.6277C44.5979 25.8677 43.7779 27.3877 43.4179 29.1877C43.0579 30.9477 42.8779 33.0877 42.8779 35.6077V48.8077H31.1779V20.1277L34.5074 19.8277L40.699 17.5096L42.8581 12.3875L42.8779 20.1277C45.9179 16.7277 50.5579 15.0277 56.7979 15.0277Z" fill="#F5F5F5"/>
<path d="M96.9506 14.6677C102.471 14.6677 107.411 15.6277 111.771 17.5477C116.131 19.4677 118.311 22.8477 118.311 27.6877V48.8077H107.391L106.431 43.8277V43.5277C105.511 45.3677 103.391 46.8077 100.071 47.8477C96.7905 48.8877 92.9105 48.8077 89.0305 48.8077C85.9105 48.8077 83.0505 48.7677 79.8505 47.4877C76.6505 46.1677 75.0506 43.3477 75.0506 39.0277C75.0506 34.9077 76.4105 32.1877 79.1305 30.8677C81.8905 29.5477 84.8506 28.8877 88.0106 28.8877C94.1306 28.8877 98.3706 28.8477 100.731 28.7677C103.091 28.6477 104.631 28.4277 105.351 28.1077C106.111 27.7877 106.511 27.2077 106.551 26.3677V25.7077C106.511 24.3077 105.511 23.2277 103.551 22.4677C101.631 21.6677 99.4105 21.2677 96.8905 21.2677C94.1705 21.2677 91.8505 21.7277 89.9305 22.6477C88.0505 23.5277 87.1105 24.9077 87.1105 26.7877H75.4105C75.4105 23.7077 76.5705 21.2677 78.8905 19.4677C81.2505 17.6677 84.0506 16.4277 87.2906 15.7477C90.5706 15.0277 93.7906 14.6677 96.9506 14.6677ZM105.351 33.8077C105.351 33.8077 101.631 33.8077 97.6705 33.8077C94.9905 33.8077 92.8906 33.9077 91.3706 34.1077C89.8906 34.3077 88.7905 34.6677 88.0705 35.1877C87.3905 35.6677 87.0305 36.3877 86.9905 37.3477C87.1105 38.6677 87.7905 39.6677 89.0305 40.3477C90.3105 41.0277 92.4506 41.3677 95.4506 41.3677C99.4106 41.3677 102.231 40.5077 103.911 38.7877C105.631 37.0677 105.351 33.8077 105.351 33.8077Z" fill="#F5F5F5"/>
<path d="M133.933 0.180718H122.233V8.34072H133.933V0.180718ZM133.933 48.8077H122.233V10.421H133.933V48.8077Z" fill="#F5F5F5"/>
<path d="M161.039 30.7477L179.219 48.8077H165.299L149.219 33.2077V48.8077H137.519V0.180718H149.219V28.4077L162.959 16.1077H177.119L161.039 30.7477Z" fill="#F5F5F5"/>
<path d="M210.045 16.1077H221.745V48.8077H210.045V44.6077C206.925 48.1277 202.205 48.8077 195.885 48.8077C191.125 48.8077 187.425 48.3277 184.785 45.2077C182.185 42.0477 180.885 36.8477 180.885 29.6077V16.1077H192.585V29.4277C192.585 31.9477 192.745 34.1077 193.065 35.9077C193.425 37.6677 194.225 39.1477 195.465 40.3477C196.705 41.5477 198.565 42.1477 201.045 42.1477C204.645 42.1477 207.045 40.9677 208.245 38.6077C209.445 36.2077 210.045 33.1077 210.045 29.3077V16.1077Z" fill="#F5F5F5"/>
<path d="M41.9194 16.1399C40.9995 18.1059 39.4521 19.7102 37.5206 20.7006C35.5892 21.6909 33.3833 22.0109 31.25 21.6104L23.8493 37.4813C22.4748 40.429 19.9856 42.7098 16.9294 43.8222C13.8732 44.9346 10.5003 44.7873 7.55262 43.4128C4.60498 42.0383 2.32409 39.5492 1.21172 36.4929C0.0993512 33.4367 0.246618 30.0638 1.62112 27.1162L6.8037 16.0021L12.7352 32.2987L6.06675 29.1892C5.24205 30.9578 5.15369 32.9815 5.82111 34.8153C6.48854 36.649 7.85707 38.1425 9.62565 38.9672C11.3942 39.7919 13.418 39.8802 15.2517 39.2128C17.0855 38.5454 18.5789 37.1769 19.4036 35.4083L26.8044 19.5374C23.3468 16.6803 22.2711 11.8488 24.168 7.78108C26.4587 2.86866 32.284 0.822233 37.1742 3.10257C42.1088 5.40363 44.2101 11.2275 41.9194 16.1399ZM30.9551 16.4395C32.1342 16.9893 33.4833 17.0482 34.7058 16.6032C35.9283 16.1583 36.924 15.2459 37.4738 14.0669C38.0236 12.8878 38.0825 11.5386 37.6375 10.3161C37.1926 9.09366 36.2802 8.098 35.1012 7.5482C33.9221 6.9984 32.5729 6.93949 31.3505 7.38444C30.128 7.82939 29.1323 8.74174 28.5825 9.9208C28.0327 11.0999 27.9738 12.449 28.4187 13.6715C28.8637 14.894 29.7761 15.8897 30.9551 16.4395Z" fill="#F5F5F5"/>
<path d="M31.1779 2.3421L42.8582 0.170837V14.7171L37.5849 6.06564H31.1779V2.3421Z" fill="#F5F5F5"/>
</svg>
