<svg width="13" height="16" viewBox="0 0 13 16" fill="none" xmlns="http://www.w3.org/2000/svg">
<path d="M0.638506 3.26058C0.638592 2.78864 0.770011 2.32603 1.01805 1.92453C1.2661 1.52303 1.62098 1.19848 2.04298 0.987195C2.46499 0.775912 2.93746 0.686234 3.40753 0.728198C3.87761 0.770162 4.32673 0.942113 4.70463 1.22481C5.08254 1.5075 5.37432 1.88978 5.54732 2.32887C5.72032 2.76796 5.76772 3.24652 5.68421 3.71102C5.6007 4.17551 5.38957 4.6076 5.07446 4.95893C4.75935 5.31026 4.35269 5.56697 3.89998 5.70033C4.15023 6.51889 4.65671 7.23547 5.34484 7.74453C6.03297 8.2536 6.86638 8.52825 7.72235 8.52805H7.96211C8.09696 7.91598 8.45304 7.37524 8.96205 7.00955C9.47105 6.64387 10.0972 6.47898 10.7203 6.54651C11.3434 6.61404 11.9196 6.90924 12.3384 7.37549C12.7573 7.84174 12.9892 8.44621 12.9898 9.07296C12.9909 9.70069 12.7597 10.3066 12.3409 10.7742C11.922 11.2417 11.345 11.5378 10.7209 11.6054C10.0968 11.6731 9.46979 11.5075 8.96047 11.1405C8.45115 10.7736 8.09555 10.2313 7.96211 9.61787H7.72235C6.95283 9.61839 6.19326 9.44404 5.501 9.10798C4.80875 8.77193 4.20191 8.28295 3.72633 7.67799V10.2209C4.3384 10.3558 4.87914 10.7118 5.24483 11.2208C5.61052 11.7299 5.77541 12.3559 5.70787 12.9791C5.64034 13.6022 5.34514 14.1784 4.87889 14.5972C4.41264 15.0161 3.80817 15.248 3.18142 15.2486C2.55369 15.2497 1.94775 15.0185 1.48022 14.5997C1.01268 14.1808 0.716605 13.6038 0.648966 12.9797C0.581328 12.3556 0.74691 11.7286 1.11384 11.2193C1.48078 10.7099 2.02313 10.3543 2.63651 10.2209V5.74537C2.07006 5.6211 1.5631 5.30695 1.1997 4.85501C0.836301 4.40307 0.638291 3.8405 0.638506 3.26058Z" fill="#272828"/>
</svg>
