<svg width="63" height="57" viewBox="0 0 63 57" fill="none" xmlns="http://www.w3.org/2000/svg">
<path d="M19.6832 6.57877C18.7082 7.14201 17.6827 8.6919 17.5623 12.0791C17.5281 12.8464 17.1923 13.5691 16.628 14.0901C16.0637 14.611 15.3165 14.8881 14.5489 14.8609C13.7814 14.8338 13.0556 14.5047 12.5295 13.9452C12.0033 13.3857 11.7194 12.641 11.7395 11.8733C11.8871 7.72467 13.2001 3.59552 16.7699 1.53288C20.3513 -0.53364 24.597 0.406394 28.2717 2.36415C28.9537 2.72782 29.4633 3.34751 29.6884 4.08691C29.9135 4.82631 29.8356 5.62485 29.472 6.30685C29.1083 6.98886 28.4886 7.49846 27.7492 7.72356C27.0098 7.94866 26.2113 7.87081 25.5293 7.50715C22.5266 5.90287 20.6621 6.01941 19.6832 6.57877ZM35.3025 11.6247C35.5974 11.3808 35.9373 11.1974 36.3031 11.085C36.6688 10.9725 37.0531 10.9332 37.434 10.9693C37.8149 11.0053 38.1849 11.1161 38.5231 11.2952C38.8612 11.4743 39.1607 11.7182 39.4045 12.0131C41.6803 14.7739 43.7203 17.7209 45.5031 20.823C49.5429 27.8228 52.0328 34.9934 52.7048 41.0065C53.0389 44.0092 52.9379 46.8682 52.2387 49.3192C51.5278 51.7858 50.1527 54.0194 47.8454 55.3518C45.0525 56.9638 41.8245 56.7385 38.8762 55.6625C35.9163 54.5826 32.867 52.5433 29.9614 49.8902C29.3994 49.3673 29.0665 48.6435 29.0351 47.8765C29.0038 47.1094 29.2765 46.3609 29.794 45.7938C30.3114 45.2267 31.0319 44.8867 31.7986 44.8479C32.5653 44.809 33.3164 45.0744 33.8886 45.5863C36.4523 47.9247 38.8568 49.4552 40.8689 50.1855C42.8966 50.9235 44.1707 50.7487 44.932 50.3059C45.5691 49.9369 46.2139 49.1872 46.6334 47.715C47.0607 46.2233 47.1967 44.1801 46.9131 41.6552C46.3499 36.6094 44.194 30.2078 40.4533 23.7363C38.8344 20.9206 36.9828 18.2453 34.918 15.7383C34.6741 15.4434 34.4907 15.1035 34.3783 14.7377C34.2658 14.372 34.2265 13.9877 34.2626 13.6068C34.2986 13.2259 34.4094 12.8558 34.5885 12.5177C34.7676 12.1796 35.0115 11.8801 35.3064 11.6363" fill="#272828"/>
<path d="M57.1682 29.2406C57.1682 28.1141 56.3369 26.4477 53.4663 24.6569C53.1417 24.4542 52.8601 24.1894 52.6377 23.8779C52.4153 23.5663 52.2565 23.2139 52.1703 22.841C52.0841 22.468 52.0722 22.0817 52.1353 21.7041C52.1984 21.3266 52.3352 20.9651 52.538 20.6404C52.9475 19.9847 53.6007 19.5185 54.3539 19.3444C54.7269 19.2582 55.1132 19.2463 55.4908 19.3094C55.8683 19.3725 56.2298 19.5093 56.5545 19.7121C60.0738 21.9145 62.9949 25.1153 62.9949 29.2406C62.9949 33.3736 60.0582 36.5822 56.5234 38.7846C55.8681 39.1779 55.0844 39.2979 54.3415 39.1188C53.5985 38.9396 52.9557 38.4757 52.5515 37.827C52.1474 37.1783 52.0144 36.3968 52.1812 35.6509C52.348 34.905 52.8011 34.2546 53.443 33.8398C56.3331 32.0374 57.1682 30.3671 57.1682 29.2406ZM44.9827 40.2413C45.0468 40.6185 45.0359 41.0047 44.9507 41.3777C44.8655 41.7508 44.7077 42.1033 44.4862 42.4154C44.2647 42.7274 43.9839 42.9927 43.6599 43.1962C43.3359 43.3997 42.9749 43.5374 42.5977 43.6013C39.0686 44.1878 35.4968 44.4789 31.9194 44.4715C23.8397 44.4715 16.3816 43.0459 10.8385 40.6181C8.06893 39.41 5.64892 37.8912 3.87762 36.0578C2.08689 34.2165 0.843872 31.9014 0.843872 29.2406C0.843872 26.0165 2.65402 23.3362 5.05849 21.3163C7.47461 19.2925 10.7686 17.6727 14.5171 16.4841C15.2537 16.2502 16.053 16.3186 16.7393 16.6741C17.079 16.8501 17.3808 17.0913 17.6274 17.384C17.8739 17.6766 18.0604 18.015 18.1762 18.3797C18.292 18.7444 18.3349 19.1284 18.3023 19.5097C18.2697 19.891 18.1623 20.2621 17.9863 20.6019C17.8102 20.9416 17.569 21.2434 17.2764 21.49C16.9837 21.7365 16.6454 21.923 16.2806 22.0388C12.9789 23.0876 10.4462 24.4045 8.80697 25.7834C7.1522 27.1663 6.67053 28.3588 6.67053 29.2406C6.67053 29.9786 7.00071 30.9109 8.06504 32.0102C9.14492 33.125 10.8463 34.2632 13.1731 35.2809C17.8227 37.3163 24.4457 38.6448 31.9194 38.6448C35.3571 38.6448 38.6278 38.3651 41.6227 37.8563C41.9999 37.7922 42.3861 37.8031 42.7591 37.8883C43.1321 37.9735 43.4847 38.1313 43.7967 38.3528C44.1088 38.5743 44.3741 38.8551 44.5776 39.1791C44.7811 39.5031 44.9188 39.8641 44.9827 40.2413Z" fill="#272828"/>
<path d="M19.769 50.3098C20.7401 50.873 22.6008 50.9857 25.5918 49.3969C25.9297 49.2174 26.2997 49.1061 26.6807 49.0696C27.0616 49.033 27.446 49.0718 27.812 49.1838C28.1779 49.2958 28.5182 49.4788 28.8134 49.7223C29.1086 49.9658 29.353 50.2651 29.5325 50.603C29.7121 50.941 29.8233 51.311 29.8599 51.6919C29.8965 52.0729 29.8576 52.4573 29.7456 52.8232C29.6336 53.1891 29.4507 53.5294 29.2071 53.8247C28.9636 54.1199 28.6644 54.3642 28.3264 54.5438C24.6595 56.4899 20.4255 57.4183 16.8557 55.3595C13.2742 53.2891 11.9613 49.1444 11.8253 44.9803C11.8112 44.2153 12.0986 43.4754 12.6255 42.9206C13.1523 42.3657 13.8763 42.0404 14.641 42.0149C15.4058 41.9893 16.1498 42.2657 16.7125 42.7842C17.2751 43.3028 17.6112 44.0218 17.6481 44.7861C17.7646 48.185 18.7901 49.7465 19.769 50.3098ZM16.3352 34.2554C15.611 33.9864 15.0233 33.4408 14.7013 32.7386C14.3794 32.0364 14.3495 31.235 14.6182 30.5108C15.7913 27.345 17.3257 24.0743 19.2019 20.8269C23.2417 13.8271 28.206 8.08593 33.0771 4.4967C35.5087 2.70598 38.0336 1.36585 40.508 0.748223C42.9979 0.126713 45.6238 0.200517 47.9273 1.53288C50.7241 3.14492 52.138 6.05048 52.6818 9.14638C53.2295 12.25 52.9848 15.9092 52.138 19.7509C52.0695 20.1373 51.9236 20.506 51.7091 20.8346C51.4946 21.1633 51.2158 21.4452 50.8896 21.6635C50.5635 21.8818 50.1965 22.0319 49.8109 22.1048C49.4253 22.1778 49.0288 22.172 48.6455 22.088C48.2621 22.0039 47.8997 21.8433 47.5799 21.6157C47.2602 21.3881 46.9897 21.0982 46.7848 20.7635C46.5799 20.4287 46.4447 20.056 46.3873 19.6678C46.33 19.2795 46.3517 18.8837 46.4512 18.504C47.1931 15.1168 47.3174 12.2656 46.9445 10.1524C46.5716 8.03154 45.7792 7.0177 45.0178 6.57876C44.3808 6.20974 43.4058 6.02717 41.9219 6.40008C40.4148 6.77687 38.5813 7.68194 36.5342 9.18911C32.4478 12.1957 27.9807 17.2687 24.2478 23.7402C22.6142 26.5509 21.22 29.494 20.0798 32.5385C19.8108 33.2626 19.2652 33.8503 18.563 34.1723C17.8608 34.4943 17.0594 34.5241 16.3352 34.2554Z" fill="#272828"/>
<path d="M37.5906 28.6967C37.5906 30.0978 37.034 31.4415 36.0433 32.4322C35.0525 33.423 33.7088 33.9795 32.3077 33.9795C30.9066 33.9795 29.5629 33.423 28.5722 32.4322C27.5815 31.4415 27.0249 30.0978 27.0249 28.6967C27.0249 27.2956 27.5815 25.9519 28.5722 24.9612C29.5629 23.9705 30.9066 23.4139 32.3077 23.4139C33.7088 23.4139 35.0525 23.9705 36.0433 24.9612C37.034 25.9519 37.5906 27.2956 37.5906 28.6967Z" fill="#272828"/>
</svg>
