<svg width="612" height="203" viewBox="0 0 612 203" fill="none" xmlns="http://www.w3.org/2000/svg">
<path d="M2.00856 186.138V187.972H3.84265H36.145H37.9791V186.138V111.001H113.553V165.41L73.2352 149.604L71.2071 152.544L114.028 199.773L114.574 200.375H115.387H147.689H149.523V198.541V9.48425V7.65016H147.689H115.387H113.553V9.48425V81.0876H37.9791V9.48425V7.65016H36.145H3.84265H2.00856V9.48425V186.138ZM184.454 185.751L184.47 185.76L184.486 185.767C191.715 189.293 200.848 191 211.788 191C222.462 191 231.341 188.763 238.285 184.137C243.765 180.574 248.292 176.243 251.849 171.149L254.138 186.41L254.372 187.972H255.952H283.459H285.293V186.138V109.167C285.293 92.4334 280.012 79.2635 269.268 69.9285C258.579 60.6414 244.056 56.1037 225.921 56.1037C215.275 56.1037 205.602 57.9923 196.932 61.8048C188.261 65.4491 181.113 70.759 175.53 77.7382L175.521 77.7492L175.513 77.7604C170.068 84.7858 166.922 93.0303 166.051 102.437L165.866 104.44H167.877H199.423H200.934L201.223 102.956C202.311 97.3587 205.065 93.2742 209.475 90.5367L209.494 90.5249L209.513 90.5126C214.057 87.5355 219.418 86.0176 225.668 86.0176C232.54 86.0176 238.165 87.9259 242.669 91.6532C246.991 95.2299 249.323 100.928 249.323 109.167V110.362H219.359C200.995 110.362 186.882 114.009 177.334 121.613C167.812 129.195 163.015 139.144 163.015 151.312C163.015 158.523 164.778 165.156 168.315 171.169C171.885 177.237 177.299 182.087 184.454 185.751ZM239.168 153.648L239.158 153.659L239.149 153.671C234.512 159.235 227.921 162.096 219.107 162.096C213.313 162.096 208.849 160.809 205.549 158.409C202.357 156.088 200.752 152.874 200.752 148.536C200.752 144.576 202.33 141.3 205.631 138.599L205.65 138.584L205.669 138.568C208.864 135.808 214.452 134.219 222.892 134.219H248.226C246.751 141.905 243.72 148.362 239.168 153.648ZM301.676 37.5614L301.69 37.5754L301.705 37.5891C305.955 41.4696 311.294 43.3684 317.579 43.3684C323.855 43.3684 329.123 41.474 333.215 37.5754C337.467 33.6862 339.602 28.7356 339.602 22.8595C339.602 16.9897 337.47 12.1095 333.199 8.38053C329.109 4.49236 323.847 2.60292 317.579 2.60292C311.295 2.60292 305.957 4.50129 301.707 8.38083C297.592 12.1218 295.556 17.0039 295.556 22.8595C295.556 28.7151 297.591 33.6625 301.676 37.5614ZM299.594 186.138V187.972H301.428H333.73H335.564V186.138V60.9662V59.1321H333.73H301.428H299.594V60.9662V186.138ZM349.264 186.138V187.972H351.098H383.4H385.234V186.138V128.492L432.698 187.29L433.249 187.972H434.125H474.503H478.542L475.884 184.931L417.396 118.017L467.54 62.1918L470.288 59.1321H466.175H427.816H426.984L426.436 59.7579L385.234 106.812V4.43701V2.60292H383.4H351.098H349.264V4.43701V186.138ZM497.053 175.727L497.058 175.734L497.064 175.74C506.064 185.975 518.726 191 534.782 191C544.819 191 553.651 188.749 561.211 184.179C567.266 180.6 572.199 176.031 575.992 170.482L577.881 186.355L578.074 187.972H579.702H608.219H610.053V186.138V60.9662V59.1321H608.219H575.917H574.083V60.9662V125.571C574.083 136.7 571.224 145.12 565.735 151.079L565.726 151.089L565.717 151.098C560.36 157.086 553.547 160.077 545.129 160.077C536.087 160.077 529.817 157.35 525.892 152.217C521.857 146.94 519.708 139.154 519.708 128.599V60.9662V59.1321H517.874H485.824H483.989V60.9662V131.628C483.989 150.712 488.246 165.511 497.053 175.727Z" fill="#E46B39" stroke="#E46B39" stroke-width="3.66818"/>
<mask id="path-2-inside-1_22_255" fill="white">
<path d="M59.9232 142.396L73.9422 147.898L69.864 153.777L59.9232 142.396Z"/>
</mask>
<path d="M59.9232 142.396L73.9422 147.898L69.864 153.777L59.9232 142.396Z" fill="#E46B39"/>
<path d="M59.9232 142.396L62.6032 135.567L54.3979 147.223L59.9232 142.396ZM73.9422 147.898L79.9701 152.08L85.2576 144.457L76.6222 141.069L73.9422 147.898ZM69.864 153.777L64.3388 158.603L70.5289 165.69L75.892 157.958L69.864 153.777ZM57.2431 149.226L71.2621 154.727L76.6222 141.069L62.6032 135.567L57.2431 149.226ZM67.9142 143.716L63.8361 149.595L75.892 157.958L79.9701 152.08L67.9142 143.716ZM75.3893 148.95L65.4484 137.57L54.3979 147.223L64.3388 158.603L75.3893 148.95Z" fill="#E46B39" mask="url(#path-2-inside-1_22_255)"/>
</svg>
